<svg width="4853" height="1500" viewBox="0 0 4853 1500" fill="none" xmlns="http://www.w3.org/2000/svg">
<path d="M800.006 1346.14C781.794 1356.66 772.681 1361.91 763 1363.97C754.431 1365.79 745.581 1365.79 737.013 1363.97C727.331 1361.91 718.219 1356.66 700.006 1346.14L258.74 1091.38C240.525 1080.86 231.417 1075.6 224.794 1068.24C218.933 1061.73 214.506 1054.06 211.799 1045.74C208.74 1036.32 208.74 1025.81 208.74 1004.77V495.241C208.74 474.207 208.74 463.691 211.799 454.276C214.506 445.946 218.933 438.278 224.794 431.769C231.417 424.413 240.525 419.154 258.74 408.637L700.006 153.873C718.219 143.356 727.331 138.098 737.013 136.04C745.581 134.219 754.431 134.219 763 136.04C772.681 138.098 781.794 143.356 800.006 153.873L1241.27 408.637C1259.49 419.154 1268.59 424.413 1275.22 431.769C1281.08 438.278 1285.51 445.946 1288.21 454.276C1291.28 463.691 1291.28 474.207 1291.28 495.24V1004.77C1291.28 1025.81 1291.28 1036.32 1288.21 1045.74C1285.51 1054.06 1281.08 1061.73 1275.22 1068.24C1268.59 1075.6 1259.49 1080.86 1241.27 1091.38L800.006 1346.14Z" fill="#CCCCCC" stroke="#CCCCCC" stroke-width="66.6667" stroke-linejoin="round"/>
<path d="M665.915 539.183H754.523L852.357 865.098L819.746 960.107H790.825L665.915 539.183ZM824.049 651.029L857.893 539.183H946.501L1043.72 865.098L1011.72 960.107H982.803L901.585 685.905C897.481 698.734 891.531 718.175 883.736 744.233C877.993 762.673 873.691 776.504 870.819 785.724H864.662L824.049 651.029ZM1018.49 651.029L1052.34 539.183H1140.94L1065.25 785.724H1059.11L1018.49 651.029Z" fill="black" fill-opacity="0.8"/>
<path d="M578.963 743.436C594.925 745.899 609.417 752.262 622.439 762.524C635.88 772.787 646.382 785.512 653.943 800.701C661.925 815.89 665.915 832.104 665.915 849.345C665.915 871.102 660.244 890.806 648.903 908.457C637.561 925.698 620.969 939.45 599.126 949.713C577.703 959.565 552.289 964.491 522.885 964.491H359.062V535.312H516.584C546.408 535.312 571.822 540.239 592.825 550.091C613.827 559.532 629.58 572.462 640.081 588.883C650.583 605.303 655.833 623.776 655.833 644.3C655.833 669.751 648.693 690.892 634.411 707.723C620.549 724.143 602.066 736.047 578.963 743.436ZM416.4 720.653H512.804C539.688 720.653 560.481 714.496 575.182 702.181C589.884 689.866 597.235 672.83 597.235 651.074C597.235 629.317 589.884 612.281 575.182 599.966C560.481 587.651 539.267 581.494 511.544 581.494H416.4V720.653ZM517.844 918.309C546.408 918.309 568.672 911.741 584.634 898.605C600.596 885.47 608.577 867.202 608.577 843.804C608.577 819.994 600.176 801.317 583.373 787.77C566.571 773.813 544.098 766.835 515.954 766.835H416.4V918.309H517.844Z" fill="#1396CE" fill-opacity="0.8"/>
<path d="M3460.75 517.198H3549.25L3646.96 896.544L3614.39 1007.13H3585.5L3460.75 517.198ZM3618.68 647.38L3652.48 517.198H3740.98L3838.08 896.544L3806.12 1007.13H3777.24L3696.12 687.974C3692.02 702.906 3686.08 725.535 3678.29 755.865C3672.56 777.328 3668.26 793.426 3665.39 804.158H3659.25L3618.68 647.38ZM3812.88 647.38L3846.68 517.198H3935.17L3859.58 804.158H3853.44L3812.88 647.38ZM3967.13 1007.13V517.198H4190.82V615.185H4053.78V714.571H4133.05V813.257H4053.78V908.442H4190.82V1007.13H3967.13ZM4233.84 1007.13L4313.11 599.786H4322.33L4359.2 795.759L4318.65 1007.13H4233.84ZM4364.74 947.637L4383.17 851.051H4405.29L4340.15 517.198H4425.57L4526.97 1007.13H4440.93L4428.65 947.637H4364.74ZM4564.45 1007.13V517.198H4651.11V1007.13H4564.45ZM4684.29 806.957V719.47H4692.28C4718.5 719.47 4735.3 707.338 4742.68 683.075C4744.31 677.009 4745.13 670.71 4745.13 664.177C4745.13 639.447 4734.89 622.883 4714.4 614.485C4707.85 611.686 4700.48 610.285 4692.28 610.285H4684.29V517.198H4697.81C4751.48 518.132 4789.17 539.828 4810.88 582.29C4821.13 602.353 4826.25 624.983 4826.25 650.179C4825.84 698.239 4811.91 735.101 4784.46 760.764C4804.95 775.695 4818.06 802.758 4823.79 841.952C4824.21 846.618 4824.61 851.051 4825.02 855.25L4835.47 1007.13H4755.58L4746.36 882.546C4743.08 845.218 4733.66 822.121 4718.09 813.257C4710.72 809.524 4701.7 807.424 4691.05 806.957H4684.29Z" fill="black"/>
<path d="M1597.08 760.073C1613.02 762.939 1627.49 770.345 1640.5 782.29C1653.92 794.236 1664.41 809.047 1671.96 826.725C1679.93 844.404 1683.92 863.277 1683.92 883.345C1683.92 908.668 1678.25 931.602 1666.93 952.147C1655.6 972.215 1639.03 988.221 1617.21 1000.17C1595.82 1011.63 1570.44 1017.37 1541.07 1017.37H1377.45V517.829H1534.78C1564.56 517.829 1589.94 523.563 1610.92 535.03C1631.9 546.019 1647.63 561.069 1658.12 580.182C1668.6 599.294 1673.85 620.795 1673.85 644.684C1673.85 674.308 1666.72 698.915 1652.45 718.504C1638.61 737.616 1620.15 751.472 1597.08 760.073ZM1434.72 733.555H1531C1557.85 733.555 1578.62 726.388 1593.3 712.054C1607.98 697.72 1615.32 677.891 1615.32 652.568C1615.32 627.245 1607.98 607.416 1593.3 593.082C1578.62 578.748 1557.43 571.581 1529.74 571.581H1434.72V733.555ZM1536.03 963.615C1564.56 963.615 1586.8 955.97 1602.74 940.68C1618.68 925.391 1626.65 904.129 1626.65 876.894C1626.65 849.182 1618.26 827.442 1601.48 811.675C1584.7 795.429 1562.26 787.307 1534.15 787.307H1434.72V963.615H1536.03ZM1994.33 1017.37L1889.87 813.108H1820.65V1017.37H1763.38V517.829H1904.97C1938.12 517.829 1966.01 524.279 1988.67 537.18C2011.74 550.08 2028.94 567.52 2040.27 589.499C2051.6 611.478 2057.26 636.562 2057.26 664.752C2057.26 699.153 2048.45 729.493 2030.83 755.772C2013.63 782.052 1987.62 799.491 1952.8 808.091L2062.92 1017.37H1994.33ZM1820.65 760.789H1904.97C1936.02 760.789 1959.3 752.189 1974.82 734.988C1990.35 717.309 1998.11 693.898 1998.11 664.752C1998.11 635.129 1990.35 612.194 1974.82 595.949C1959.72 579.703 1936.44 571.581 1904.97 571.581H1820.65V760.789ZM2203.51 517.829V1017.37H2146.24V517.829H2203.51ZM2437.66 517.829C2485.48 517.829 2526.81 528.101 2561.63 548.647C2596.87 568.714 2623.72 597.621 2642.18 635.367C2661.05 673.114 2670.49 717.549 2670.49 768.673C2670.49 819.797 2661.05 864.232 2642.18 901.979C2623.72 939.247 2596.87 967.915 2561.63 987.982C2526.81 1007.57 2485.48 1017.37 2437.66 1017.37H2301.1V517.829H2437.66ZM2437.66 963.615C2494.29 963.615 2537.51 946.652 2567.29 912.729C2597.07 878.328 2611.97 830.309 2611.97 768.673C2611.97 706.559 2596.87 658.063 2566.66 623.183C2536.88 588.304 2493.87 570.865 2437.66 570.865H2358.37V963.615H2437.66ZM3078.29 662.602C3066.13 633.456 3048.51 611 3025.43 595.232C3002.36 578.987 2975.51 570.865 2944.88 570.865C2914.26 570.865 2886.57 578.987 2861.81 595.232C2837.49 611 2818.19 633.934 2803.92 664.035C2790.08 693.658 2783.15 728.06 2783.15 767.24C2783.15 806.419 2790.08 840.821 2803.92 870.444C2818.19 900.067 2837.49 923.001 2861.81 939.247C2886.57 955.014 2914.26 962.898 2944.88 962.898C2987.67 962.898 3022.91 948.325 3050.6 919.179C3078.29 890.033 3094.44 850.615 3099.05 800.924H2924.11V747.889H3160.1V798.058C3156.74 839.148 3145.42 876.894 3126.11 911.296C3106.82 945.219 3081.43 972.215 3049.97 992.283C3018.51 1011.87 2983.48 1021.67 2944.88 1021.67C2904.19 1021.67 2867.06 1010.92 2833.5 989.416C2799.94 967.437 2773.3 937.097 2753.58 898.395C2734.28 859.693 2724.63 815.975 2724.63 767.24C2724.63 718.504 2734.28 674.786 2753.58 636.084C2773.3 596.904 2799.94 566.564 2833.5 545.063C2867.06 523.084 2904.19 512.095 2944.88 512.095C2991.45 512.095 3032.57 525.235 3068.22 551.514C3104.3 577.793 3130.52 614.822 3146.88 662.602H3078.29ZM3293.08 570.865V737.855H3452.92V791.607H3293.08V963.615H3471.8V1017.37H3235.82V517.112H3471.8V570.865H3293.08Z" fill="#1396CE"/>
</svg>
