<svg width="1500" height="1500" viewBox="0 0 1500 1500" fill="none" xmlns="http://www.w3.org/2000/svg">
<path d="M800.006 1346.14C781.794 1356.66 772.681 1361.91 763 1363.97C754.431 1365.79 745.581 1365.79 737.012 1363.97C727.331 1361.91 718.219 1356.66 700.006 1346.14L258.74 1091.37C240.525 1080.86 231.417 1075.6 224.794 1068.24C218.933 1061.73 214.506 1054.06 211.799 1045.74C208.74 1036.32 208.74 1025.81 208.74 1004.77V495.241C208.74 474.208 208.74 463.691 211.799 454.276C214.506 445.946 218.933 438.278 224.794 431.769C231.417 424.412 240.525 419.154 258.74 408.637L700.006 153.873C718.219 143.356 727.331 138.098 737.012 136.04C745.581 134.219 754.431 134.219 763 136.04C772.681 138.098 781.794 143.356 800.006 153.873L1241.27 408.637C1259.49 419.154 1268.59 424.412 1275.22 431.769C1281.08 438.278 1285.51 445.946 1288.21 454.276C1291.28 463.691 1291.28 474.208 1291.28 495.24V1004.77C1291.28 1025.81 1291.28 1036.32 1288.21 1045.74C1285.51 1054.06 1281.08 1061.73 1275.22 1068.24C1268.59 1075.6 1259.49 1080.86 1241.27 1091.37L800.006 1346.14Z" fill="#CCCCCC" stroke="#CCCCCC" stroke-width="66.6667" stroke-linejoin="round"/>
<path d="M665.915 539.183H754.523L852.357 865.098L819.746 960.106H790.825L665.915 539.183ZM824.049 651.029L857.893 539.183H946.502L1043.72 865.098L1011.72 960.106H982.803L901.585 685.905C897.481 698.734 891.531 718.175 883.736 744.233C877.993 762.673 873.691 776.504 870.819 785.724H864.662L824.049 651.029ZM1018.49 651.029L1052.34 539.183H1140.94L1065.25 785.724H1059.11L1018.49 651.029Z" fill="black" fill-opacity="0.8"/>
<path d="M578.963 743.436C594.925 745.899 609.417 752.262 622.439 762.524C635.88 772.787 646.382 785.512 653.943 800.701C661.925 815.89 665.915 832.104 665.915 849.345C665.915 871.102 660.244 890.806 648.903 908.457C637.561 925.698 620.969 939.45 599.126 949.713C577.703 959.565 552.289 964.491 522.885 964.491H359.062V535.312H516.584C546.408 535.312 571.822 540.239 592.825 550.091C613.827 559.532 629.58 572.462 640.081 588.883C650.583 605.303 655.833 623.776 655.833 644.3C655.833 669.751 648.693 690.892 634.411 707.723C620.549 724.143 602.066 736.047 578.963 743.436ZM416.4 720.653H512.804C539.688 720.653 560.481 714.496 575.182 702.181C589.884 689.866 597.235 672.83 597.235 651.074C597.235 629.317 589.884 612.281 575.182 599.966C560.481 587.651 539.267 581.494 511.544 581.494H416.4V720.653ZM517.844 918.309C546.408 918.309 568.672 911.741 584.634 898.605C600.596 885.47 608.577 867.202 608.577 843.804C608.577 819.994 600.176 801.317 583.373 787.77C566.571 773.813 544.098 766.835 515.954 766.835H416.4V918.309H517.844Z" fill="#1396CE" fill-opacity="0.8"/>
</svg>
