<svg width="87" height="50" viewBox="0 0 87 50" fill="none" xmlns="http://www.w3.org/2000/svg">
<path d="M34.09 1H43.934L54.803 38.0508L51.18 48.8516H47.967L34.09 1ZM51.658 13.7149L55.418 1H65.262L76.063 38.0508L72.508 48.8516H69.295L60.272 17.6797C59.816 19.1381 59.155 21.3483 58.289 24.3106C57.651 26.4069 57.173 27.9792 56.854 29.0274H56.17L51.658 13.7149ZM73.26 13.7149L77.02 1H86.863L78.455 29.0274H77.772L73.26 13.7149Z" fill="black"/>
<path d="M24.43 24.22C26.2033 24.5 27.8133 25.2233 29.26 26.39C30.7533 27.5567 31.92 29.0033 32.76 30.73C33.6467 32.4567 34.09 34.3 34.09 36.26C34.09 38.7333 33.46 40.9733 32.2 42.98C30.94 44.94 29.0967 46.5033 26.67 47.67C24.29 48.79 21.4667 49.35 18.2 49.35H0V0.559998H17.5C20.8133 0.559998 23.6367 1.12 25.97 2.24C28.3033 3.3133 30.0533 4.7833 31.22 6.65C32.3867 8.5167 32.97 10.6167 32.97 12.95C32.97 15.8433 32.1767 18.2467 30.59 20.16C29.05 22.0267 26.9967 23.38 24.43 24.22ZM6.37 21.63H17.08C20.0667 21.63 22.3767 20.93 24.01 19.53C25.6433 18.13 26.46 16.1933 26.46 13.72C26.46 11.2467 25.6433 9.31 24.01 7.91C22.3767 6.51 20.02 5.81 16.94 5.81H6.37V21.63ZM17.64 44.1C20.8133 44.1 23.2867 43.3533 25.06 41.86C26.8333 40.3667 27.72 38.29 27.72 35.63C27.72 32.9233 26.7867 30.8 24.92 29.26C23.0533 27.6733 20.5567 26.88 17.43 26.88H6.37V44.1H17.64Z" fill="#1396CE"/>
</svg>
