<svg width="392" height="109" viewBox="0 0 392 109" fill="none" xmlns="http://www.w3.org/2000/svg">
<path d="M237.13 28.1484H246.974L257.843 65.1992L254.22 76H251.007L237.13 28.1484ZM254.698 40.8633L258.458 28.1484H268.302L279.103 65.1992L275.548 76H272.335L263.312 44.8281C262.856 46.2865 262.195 48.4967 261.329 51.459C260.691 53.5553 260.213 55.1276 259.894 56.1758H259.21L254.698 40.8633ZM276.3 40.8633L280.06 28.1484H289.903L281.495 56.1758H280.812L276.3 40.8633ZM293.458 76V28.1484H318.341V37.7188H303.097V47.4258H311.915V57.0645H303.097V66.3613H318.341V76H293.458ZM323.126 76L331.944 36.2148H332.97L337.071 55.3555L332.56 76H323.126ZM337.687 70.1895L339.737 60.7559H342.198L334.952 28.1484H344.454L355.733 76H346.163L344.796 70.1895H337.687ZM359.903 76V28.1484H369.542V76H359.903ZM373.233 56.4492V47.9043H374.122C377.039 47.9043 378.907 46.7194 379.728 44.3496C379.91 43.7572 380.001 43.1419 380.001 42.5039C380.001 40.0885 378.862 38.4707 376.583 37.6504C375.854 37.377 375.034 37.2402 374.122 37.2402H373.233V28.1484H374.737C380.707 28.2396 384.9 30.3587 387.315 34.5059C388.455 36.4655 389.024 38.6758 389.024 41.1367C388.979 45.8307 387.429 49.431 384.376 51.9375C386.655 53.3958 388.113 56.0391 388.751 59.8672C388.797 60.3229 388.842 60.7559 388.888 61.166L390.05 76H381.163L380.138 63.832C379.773 60.1862 378.725 57.9303 376.993 57.0645C376.173 56.6999 375.17 56.4948 373.985 56.4492H373.233Z" fill="black"/>
<path d="M29.82 51.87C31.5933 52.15 33.2033 52.8733 34.65 54.04C36.1433 55.2067 37.31 56.6533 38.15 58.38C39.0367 60.1067 39.48 61.95 39.48 63.91C39.48 66.3833 38.85 68.6233 37.59 70.63C36.33 72.59 34.4867 74.1533 32.06 75.32C29.68 76.44 26.8567 77 23.59 77H5.39V28.21H22.89C26.2033 28.21 29.0267 28.77 31.36 29.89C33.6933 30.9633 35.4433 32.4333 36.61 34.3C37.7767 36.1667 38.36 38.2667 38.36 40.6C38.36 43.4933 37.5667 45.8967 35.98 47.81C34.44 49.6767 32.3867 51.03 29.82 51.87ZM11.76 49.28H22.47C25.4567 49.28 27.7667 48.58 29.4 47.18C31.0333 45.78 31.85 43.8433 31.85 41.37C31.85 38.8967 31.0333 36.96 29.4 35.56C27.7667 34.16 25.41 33.46 22.33 33.46H11.76V49.28ZM23.03 71.75C26.2033 71.75 28.6767 71.0033 30.45 69.51C32.2233 68.0167 33.11 65.94 33.11 63.28C33.11 60.5733 32.1767 58.45 30.31 56.91C28.4433 55.3233 25.9467 54.53 22.82 54.53H11.76V71.75H23.03ZM74.0097 77L62.3897 57.05H54.6897V77H48.3197V28.21H64.0697C67.7564 28.21 70.8597 28.84 73.3797 30.1C75.9464 31.36 77.8597 33.0633 79.1197 35.21C80.3797 37.3567 81.0097 39.8067 81.0097 42.56C81.0097 45.92 80.0297 48.8833 78.0697 51.45C76.1564 54.0167 73.263 55.72 69.3897 56.56L81.6397 77H74.0097ZM54.6897 51.94H64.0697C67.523 51.94 70.113 51.1 71.8397 49.42C73.5664 47.6933 74.4297 45.4067 74.4297 42.56C74.4297 39.6667 73.5664 37.4267 71.8397 35.84C70.1597 34.2533 67.5697 33.46 64.0697 33.46H54.6897V51.94ZM97.2776 28.21V77H90.9076V28.21H97.2776ZM123.324 28.21C128.644 28.21 133.241 29.2133 137.114 31.22C141.034 33.18 144.021 36.0033 146.074 39.69C148.174 43.3767 149.224 47.7167 149.224 52.71C149.224 57.7033 148.174 62.0433 146.074 65.73C144.021 69.37 141.034 72.17 137.114 74.13C133.241 76.0433 128.644 77 123.324 77H108.134V28.21H123.324ZM123.324 71.75C129.624 71.75 134.431 70.0933 137.744 66.78C141.057 63.42 142.714 58.73 142.714 52.71C142.714 46.6433 141.034 41.9067 137.674 38.5C134.361 35.0933 129.577 33.39 123.324 33.39H114.504V71.75H123.324ZM194.586 42.35C193.233 39.5033 191.273 37.31 188.706 35.77C186.14 34.1833 183.153 33.39 179.746 33.39C176.34 33.39 173.26 34.1833 170.506 35.77C167.8 37.31 165.653 39.55 164.066 42.49C162.526 45.3833 161.756 48.7433 161.756 52.57C161.756 56.3967 162.526 59.7567 164.066 62.65C165.653 65.5433 167.8 67.7833 170.506 69.37C173.26 70.91 176.34 71.68 179.746 71.68C184.506 71.68 188.426 70.2567 191.506 67.41C194.586 64.5633 196.383 60.7133 196.896 55.86H177.436V50.68H203.686V55.58C203.313 59.5933 202.053 63.28 199.906 66.64C197.76 69.9533 194.936 72.59 191.436 74.55C187.936 76.4633 184.04 77.42 179.746 77.42C175.22 77.42 171.09 76.37 167.356 74.27C163.623 72.1233 160.66 69.16 158.466 65.38C156.32 61.6 155.246 57.33 155.246 52.57C155.246 47.81 156.32 43.54 158.466 39.76C160.66 35.9333 163.623 32.97 167.356 30.87C171.09 28.7233 175.22 27.65 179.746 27.65C184.926 27.65 189.5 28.9333 193.466 31.5C197.48 34.0667 200.396 37.6833 202.216 42.35H194.586ZM218.479 33.39V49.7H236.259V54.95H218.479V71.75H238.359V77H212.109V28.14H238.359V33.39H218.479Z" fill="#1396CE"/>
</svg>
